<?xml version="1.0" standalone="no"?>
<!DOCTYPE svg PUBLIC "-//W3C//DTD SVG 20010904//EN"
 "http://www.w3.org/TR/2001/REC-SVG-20010904/DTD/svg10.dtd">
<svg version="1.0" xmlns="http://www.w3.org/2000/svg"
 width="666.000000pt" height="666.000000pt" viewBox="0 0 666.000000 666.000000"
 preserveAspectRatio="xMidYMid meet">
<metadata>
Created by potrace 1.14, written by Peter Selinger 2001-2017
</metadata>
<g transform="translate(0.000000,666.000000) scale(0.100000,-0.100000)"
fill="#000000" stroke="none">
<path d="M3257 6654 c-3 -3 -32 -8 -64 -10 -32 -3 -64 -6 -70 -9 -7 -2 -13 1
-13 8 0 7 -3 8 -8 2 -4 -5 -25 -11 -47 -12 -85 -4 -110 -8 -117 -18 -5 -6 -8
-4 -8 5 0 13 -1 13 -10 0 -7 -11 -10 -12 -10 -2 0 11 -3 11 -14 -1 -8 -8 -28
-13 -45 -12 -17 1 -31 -3 -31 -9 0 -6 -4 -5 -9 3 -7 11 -10 10 -18 -4 -7 -12
-12 -14 -17 -6 -5 7 -13 8 -24 2 -9 -4 -25 -7 -34 -6 -10 2 -18 -1 -18 -6 0
-6 -4 -7 -10 -4 -5 3 -10 2 -10 -3 0 -6 -8 -8 -19 -5 -10 3 -22 0 -25 -6 -4
-5 -13 -8 -21 -4 -8 3 -15 0 -15 -7 0 -9 -3 -10 -14 -1 -11 9 -15 8 -20 -5 -5
-13 -9 -14 -21 -4 -11 9 -15 9 -15 1 0 -7 -4 -9 -10 -6 -5 3 -10 1 -10 -4 0
-6 -5 -11 -11 -11 -5 0 -7 6 -4 13 4 6 -1 3 -9 -7 -9 -11 -16 -14 -16 -8 0 9
-5 10 -19 3 -10 -6 -21 -7 -25 -4 -3 3 -6 1 -6 -6 0 -7 -4 -9 -10 -6 -5 3 -10
0 -10 -7 0 -10 -2 -10 -9 1 -6 9 -11 10 -15 2 -4 -6 -12 -9 -17 -6 -5 4 -9 1
-9 -5 0 -7 -6 -10 -12 -7 -7 2 -25 -2 -40 -10 -16 -7 -28 -10 -28 -6 0 4 -5 2
-12 -5 -7 -7 -22 -12 -35 -12 -13 0 -23 -5 -23 -11 0 -6 -9 -9 -20 -6 -12 3
-20 0 -20 -7 0 -7 -7 -13 -15 -14 -8 -1 -22 -3 -30 -4 -8 -1 -15 -5 -15 -10 0
-5 -4 -6 -10 -3 -5 3 -10 2 -10 -4 0 -6 -7 -8 -15 -5 -8 4 -15 1 -15 -5 0 -6
-9 -11 -20 -11 -11 0 -20 -5 -20 -11 0 -5 -4 -8 -9 -5 -5 3 -14 -1 -21 -9 -7
-8 -16 -12 -21 -9 -5 3 -9 1 -9 -5 0 -6 -7 -8 -15 -5 -8 4 -17 -1 -21 -10 -3
-9 -10 -14 -14 -11 -5 3 -11 1 -15 -5 -4 -6 -11 -8 -16 -5 -5 4 -9 1 -9 -4 0
-6 -6 -10 -12 -8 -7 1 -12 -4 -10 -11 1 -8 -2 -11 -7 -8 -5 4 -15 0 -23 -7 -7
-8 -18 -12 -24 -10 -5 2 -20 -6 -32 -17 -11 -11 -28 -20 -37 -20 -8 0 -15 -4
-15 -10 0 -5 -7 -10 -16 -10 -8 0 -12 -4 -9 -10 3 -6 -1 -7 -9 -4 -10 4 -16 1
-16 -10 0 -10 -6 -13 -15 -10 -8 4 -15 1 -15 -6 0 -6 -4 -9 -9 -6 -5 4 -11 3
-13 -1 -4 -10 -65 -53 -74 -53 -4 0 -31 -20 -60 -45 -28 -25 -57 -45 -63 -45
-6 0 -11 -7 -11 -16 0 -8 -5 -12 -11 -9 -6 4 -17 -1 -24 -11 -8 -11 -15 -15
-15 -11 0 4 -14 -7 -32 -25 -18 -18 -36 -33 -40 -33 -13 0 -47 -43 -40 -51 4
-5 -1 -2 -11 6 -10 7 -17 9 -16 4 4 -16 -13 -44 -22 -38 -5 3 -9 0 -9 -5 0 -6
-7 -11 -16 -11 -8 0 -12 -4 -9 -10 3 -5 1 -10 -5 -10 -6 0 -8 -4 -5 -10 3 -5
-3 -10 -15 -10 -12 0 -18 -4 -15 -11 4 -6 -2 -13 -12 -15 -11 -3 -27 -19 -37
-35 -10 -16 -21 -27 -26 -24 -4 3 -14 -8 -21 -24 -9 -19 -18 -27 -28 -23 -9 3
-13 2 -9 -3 4 -4 -3 -18 -17 -30 -13 -13 -21 -26 -18 -29 4 -3 -2 -6 -12 -6
-10 0 -16 -3 -13 -6 3 -3 -6 -18 -20 -34 -71 -75 -102 -110 -96 -110 3 0 -2
-7 -10 -16 -9 -8 -13 -20 -10 -26 4 -6 3 -8 -3 -5 -13 8 -45 -31 -37 -45 4 -6
3 -8 -3 -5 -6 4 -17 -1 -24 -10 -12 -14 -12 -16 1 -9 8 4 4 -2 -9 -13 -13 -12
-20 -21 -16 -21 3 0 -1 -7 -9 -16 -9 -8 -16 -22 -16 -30 0 -8 -4 -13 -9 -9 -5
3 -12 -4 -16 -15 -4 -11 -10 -18 -15 -15 -5 3 -7 -4 -5 -15 3 -13 -1 -20 -12
-20 -13 0 -13 -3 -3 -15 11 -13 10 -14 -5 -9 -12 5 -16 4 -11 -4 3 -6 2 -13
-3 -17 -17 -10 -56 -69 -40 -60 7 4 3 -3 -10 -18 -12 -14 -20 -30 -17 -35 6
-10 -17 -35 -25 -27 -3 2 -6 -5 -6 -17 -1 -12 -7 -24 -13 -28 -7 -4 -11 -11
-11 -16 1 -5 -6 -17 -14 -27 -8 -9 -15 -24 -15 -32 0 -8 -4 -15 -8 -15 -4 0
-9 -10 -9 -22 -1 -13 -7 -24 -13 -26 -5 -2 -10 -12 -10 -23 0 -10 -5 -19 -11
-19 -5 0 -8 -4 -5 -9 4 -5 2 -11 -3 -13 -5 -1 -11 -10 -13 -18 -2 -8 -9 -21
-15 -28 -7 -7 -13 -22 -13 -33 0 -10 -5 -19 -11 -19 -6 0 -9 -7 -5 -15 3 -8 1
-15 -4 -15 -5 0 -7 -9 -5 -20 2 -11 0 -18 -6 -15 -5 4 -9 -3 -9 -14 0 -11 -4
-22 -10 -26 -5 -3 -7 -12 -3 -20 3 -8 1 -15 -5 -15 -6 0 -8 -10 -4 -22 3 -14
1 -19 -6 -14 -8 5 -10 2 -6 -8 3 -9 1 -16 -6 -16 -6 0 -8 -5 -5 -10 4 -6 1
-17 -5 -25 -7 -8 -10 -15 -6 -15 3 0 0 -16 -9 -35 -10 -25 -11 -34 -2 -28 9 5
9 3 0 -9 -7 -8 -10 -18 -6 -21 3 -4 2 -7 -3 -7 -5 0 -11 -9 -12 -20 -1 -11 -3
-29 -4 -40 -1 -11 -6 -20 -11 -20 -4 0 -5 -4 -2 -10 3 -5 0 -10 -7 -10 -10 0
-9 -3 2 -11 11 -8 12 -12 3 -16 -7 -2 -13 -15 -13 -27 0 -12 -6 -28 -12 -35
-11 -11 -10 -12 2 -6 12 6 13 5 3 -6 -7 -7 -13 -26 -13 -42 0 -16 -4 -26 -10
-22 -5 3 -7 0 -4 -9 3 -8 1 -23 -5 -34 -7 -13 -7 -22 1 -30 8 -8 8 -13 -3 -17
-9 -3 -14 -18 -14 -40 1 -19 -3 -35 -9 -35 -6 0 -4 -5 4 -10 12 -7 12 -10 1
-10 -7 0 -11 -6 -8 -14 3 -8 3 -17 -1 -20 -3 -4 -6 -22 -7 -41 0 -18 -4 -37
-8 -41 -12 -12 -8 -26 5 -18 7 4 5 -1 -4 -12 -11 -13 -14 -24 -8 -34 5 -9 5
-19 -2 -27 -8 -10 -7 -13 3 -13 11 0 11 -2 0 -9 -13 -8 -13 -12 0 -27 11 -15
12 -16 0 -9 -11 6 -13 2 -9 -19 3 -14 2 -26 -1 -26 -3 0 -6 -21 -5 -48 0 -26
-5 -53 -10 -61 -8 -11 -8 -13 1 -8 8 5 11 0 10 -13 -1 -11 -4 -20 -7 -20 -4 0
-7 -7 -7 -15 0 -8 4 -12 7 -10 9 6 6 -47 -4 -63 -3 -6 -2 -14 4 -17 8 -5 8
-11 1 -19 -6 -7 -8 -16 -4 -19 12 -12 12 -58 1 -51 -7 5 -8 2 -2 -7 5 -8 10
-32 11 -53 1 -21 7 -42 13 -46 9 -6 9 -9 -1 -12 -11 -4 -12 -8 -2 -20 7 -8 10
-18 6 -22 -12 -12 -12 -36 0 -36 7 0 5 -5 -3 -10 -8 -5 -10 -10 -5 -10 6 0 12
-16 13 -35 2 -20 7 -47 13 -62 9 -24 8 -25 -7 -12 -16 13 -16 12 -4 -11 15
-27 19 -44 23 -100 2 -19 8 -44 14 -55 6 -11 8 -26 6 -33 -3 -7 0 -19 7 -27 6
-8 9 -19 5 -25 -3 -5 0 -10 7 -10 10 0 10 -2 -1 -9 -9 -6 -10 -11 -2 -15 6 -4
9 -12 6 -17 -4 -5 0 -12 8 -15 9 -3 13 -13 10 -24 -3 -11 -2 -28 2 -37 4 -10
9 -29 11 -42 2 -13 7 -27 11 -30 4 -3 10 -19 11 -36 2 -16 8 -32 13 -33 5 -2
7 -8 3 -13 -3 -5 0 -9 5 -9 6 0 11 -5 11 -11 0 -5 -4 -7 -10 -4 -16 10 -12 0
10 -25 16 -18 17 -25 8 -32 -9 -5 -8 -8 5 -8 10 0 15 -5 12 -11 -4 -6 1 -17
11 -25 11 -9 13 -13 7 -9 -7 3 -13 2 -13 -4 0 -5 6 -12 13 -14 9 -4 9 -6 -1
-6 -10 -1 -10 -4 0 -15 7 -8 16 -12 19 -10 3 2 5 -7 4 -21 -2 -13 3 -26 11
-29 8 -3 14 -12 14 -21 0 -8 9 -32 20 -52 11 -21 20 -43 20 -50 0 -7 8 -13 18
-14 11 0 12 -2 4 -6 -10 -4 -9 -9 5 -20 11 -9 12 -12 3 -8 -9 4 -6 -2 5 -12
11 -10 21 -25 23 -33 2 -8 8 -18 13 -21 6 -3 11 -16 12 -27 1 -12 5 -22 9 -22
4 0 8 -5 8 -11 0 -6 7 -17 16 -26 8 -9 13 -22 10 -29 -3 -8 0 -13 7 -11 7 1
11 -4 9 -12 -2 -9 3 -11 15 -7 9 4 14 4 10 0 -4 -4 -1 -14 6 -22 10 -13 9 -14
-3 -7 -8 4 -5 -3 8 -17 12 -13 22 -28 22 -33 0 -4 8 -14 18 -22 11 -10 12 -12
2 -8 -12 5 -12 4 1 -7 8 -7 22 -28 30 -46 7 -17 18 -32 22 -32 5 0 5 -5 2 -10
-3 -6 -1 -10 5 -10 7 0 9 -7 6 -16 -3 -8 -2 -13 3 -9 10 5 51 -45 51 -63 0 -5
7 -15 15 -22 8 -7 13 -16 10 -20 -3 -4 2 -11 11 -14 9 -4 14 -10 10 -13 -4 -4
4 -13 16 -20 13 -7 17 -12 10 -13 -10 0 -10 -3 0 -14 7 -8 17 -11 22 -8 5 3 6
0 3 -5 -4 -6 0 -16 8 -23 8 -7 15 -19 15 -26 0 -8 7 -14 15 -14 8 0 16 -4 16
-10 1 -5 2 -14 3 -19 0 -5 5 -13 10 -18 5 -5 6 -2 1 6 -5 9 -4 12 3 7 7 -4 12
-13 12 -19 0 -7 9 -18 20 -25 11 -7 20 -20 20 -29 0 -9 3 -14 6 -10 8 8 33
-16 27 -25 -2 -5 3 -8 11 -8 9 0 16 -9 16 -20 0 -14 5 -18 17 -13 12 5 15 2
10 -10 -4 -11 1 -18 14 -22 10 -4 19 -10 19 -14 0 -14 41 -51 51 -46 5 4 9 1
9 -5 0 -15 46 -60 54 -53 3 4 6 -1 6 -10 0 -10 8 -17 20 -17 11 0 20 -6 20
-14 0 -7 11 -21 25 -30 14 -9 23 -22 19 -28 -4 -6 -3 -8 4 -4 6 3 17 -1 25 -9
9 -8 21 -15 27 -15 6 0 8 -4 5 -10 -3 -5 -1 -10 5 -10 17 0 40 -26 32 -36 -4
-5 2 -2 12 6 11 8 17 10 13 4 -3 -6 5 -21 18 -32 14 -12 25 -19 25 -16 0 4 6
1 13 -5 8 -6 17 -8 21 -4 4 4 4 0 0 -10 -4 -13 -1 -17 14 -17 11 0 22 -7 26
-15 3 -8 11 -15 18 -15 8 0 20 -9 28 -20 10 -14 16 -16 22 -7 5 8 8 6 8 -7 0
-11 5 -16 13 -13 8 3 20 -3 28 -14 7 -10 19 -19 26 -19 7 0 13 -4 13 -10 0 -5
9 -10 19 -10 10 0 21 -7 25 -15 3 -9 12 -12 22 -8 11 4 15 2 11 -4 -6 -10 37
-29 56 -24 5 1 6 -3 2 -8 -6 -11 24 -30 57 -36 12 -3 24 -9 27 -13 3 -5 23
-15 44 -23 20 -7 37 -17 37 -22 0 -4 4 -6 9 -2 5 3 17 -2 25 -11 9 -8 16 -12
16 -9 0 4 11 0 25 -9 14 -9 30 -14 34 -11 5 3 16 -1 24 -9 8 -8 17 -12 21 -9
3 3 12 1 19 -5 8 -7 17 -9 20 -5 4 3 7 0 7 -9 0 -9 8 -14 22 -13 13 1 29 -4
36 -11 7 -7 21 -11 32 -9 11 2 20 0 20 -6 0 -5 9 -9 19 -9 11 0 22 -4 25 -9 3
-5 15 -11 26 -14 13 -3 18 -1 13 6 -5 8 -2 8 8 0 13 -11 42 -19 72 -22 5 -1 5
-6 1 -12 -4 -8 0 -8 15 0 16 9 21 9 21 0 0 -7 10 -9 25 -7 13 3 22 2 20 -3 -3
-4 -1 -10 4 -13 5 -4 12 -2 16 4 4 6 16 3 33 -8 17 -11 23 -12 18 -4 -7 11 -4
12 13 3 11 -7 21 -8 21 -4 0 4 5 1 10 -7 7 -11 10 -12 10 -2 0 10 4 9 16 -3
12 -12 19 -13 24 -5 5 9 9 9 14 1 4 -6 20 -9 36 -7 16 2 27 -1 24 -5 -5 -8 15
-12 61 -11 11 0 23 -5 28 -12 5 -8 9 -7 16 3 6 9 10 9 12 2 2 -6 28 -12 57
-13 28 -1 52 -5 52 -9 0 -4 18 -6 41 -5 22 1 42 -1 44 -4 2 -3 18 -5 34 -4 17
1 34 -2 37 -7 3 -6 11 -6 19 1 9 8 15 8 20 0 4 -7 12 -7 26 0 10 6 19 7 19 3
0 -11 339 -8 364 2 15 7 17 5 11 -6 -8 -12 -6 -12 8 0 9 7 24 11 32 7 8 -3 15
-2 15 2 0 4 24 7 54 7 36 -1 53 2 48 9 -3 6 3 4 13 -4 11 -9 16 -10 11 -3 -5
10 4 13 33 13 23 0 44 0 47 -1 4 0 11 5 15 13 7 10 9 10 9 0 0 -9 5 -10 19 -2
11 5 33 10 50 10 17 0 31 4 31 9 0 5 8 8 18 7 9 -2 26 2 37 9 11 6 39 11 61
11 25 -1 40 3 37 10 -2 6 9 9 27 8 16 -1 30 2 30 6 0 4 14 7 31 6 19 -1 33 3
36 11 3 8 12 12 19 9 7 -3 16 -1 20 5 3 6 12 8 20 5 7 -3 16 -1 19 5 4 5 11 7
16 4 5 -4 9 -1 9 4 0 6 3 10 8 10 22 -4 42 2 37 10 -3 6 4 8 15 6 11 -2 26 2
32 9 7 7 21 11 32 8 15 -4 18 -2 12 13 -5 15 -4 16 8 6 10 -8 16 -9 21 -1 3 6
11 8 16 5 5 -4 9 -1 9 5 0 6 5 8 10 5 6 -3 10 -1 10 5 0 6 4 9 9 6 12 -8 83
28 74 38 -4 4 0 4 10 0 9 -3 17 -1 17 5 0 6 7 8 17 4 12 -5 14 -3 8 7 -6 10
-4 12 8 7 10 -3 17 -2 17 4 0 6 4 8 9 5 12 -8 33 19 23 30 -4 4 1 2 11 -5 12
-10 17 -10 17 -2 0 7 5 9 10 6 6 -3 10 -1 10 4 0 6 6 10 13 8 6 -1 11 3 10 10
-2 7 6 10 17 8 13 -2 20 2 20 11 0 8 4 13 9 9 5 -3 12 -1 16 5 3 5 15 10 26
10 11 0 18 4 15 9 -3 5 5 12 19 15 14 4 25 11 25 17 0 6 4 8 9 4 6 -3 15 3 21
14 6 12 16 18 25 15 8 -4 18 1 21 10 3 9 10 13 15 10 5 -3 9 0 9 6 0 6 4 9 8
6 5 -3 16 6 26 19 10 14 22 23 26 20 4 -2 18 6 31 18 13 12 27 22 32 22 4 0
12 7 17 15 5 8 10 12 10 8 0 -5 9 1 20 12 12 12 25 18 30 15 6 -4 7 1 3 11 -4
11 -2 15 4 11 6 -4 13 0 17 8 3 8 12 15 20 15 8 0 17 9 21 19 4 13 12 18 22
14 10 -4 14 -2 9 5 -3 6 3 13 14 17 11 3 29 18 40 32 11 14 20 22 20 18 0 -4
20 14 45 41 25 26 45 45 45 41 0 -4 6 -2 14 5 8 7 12 16 9 21 -2 4 3 7 11 7 9
0 16 5 16 10 0 6 7 10 16 10 8 0 13 4 10 8 -3 5 4 15 15 22 10 8 19 19 19 26
0 6 11 16 25 22 14 6 24 17 23 23 -2 6 4 14 12 16 13 4 13 3 0 -6 -11 -8 -11
-11 -2 -11 7 0 16 8 19 18 4 9 13 21 20 25 7 5 11 12 8 18 -4 5 -2 9 4 9 16 0
58 43 66 69 5 16 10 20 15 11 5 -9 9 -9 14 -1 4 6 4 11 1 11 -4 0 0 7 7 15 30
33 37 43 32 48 -3 3 4 8 15 12 12 3 19 11 16 16 -4 5 -1 9 4 9 6 0 11 9 11 20
0 14 5 18 17 13 10 -4 14 -2 10 4 -4 6 4 22 18 37 13 14 21 26 17 26 -4 0 2 7
12 15 11 8 16 15 11 15 -5 0 4 14 21 32 16 18 20 26 10 18 -19 -15 36 65 72
104 10 11 11 16 3 11 -8 -4 0 12 16 36 17 24 32 49 34 54 2 6 8 9 13 7 5 -2 3
5 -4 15 -8 10 -11 15 -6 11 11 -9 46 34 46 56 0 9 4 16 10 16 5 0 9 3 8 8 0 4
4 18 10 32 6 14 11 21 12 15 0 -5 4 -3 10 5 6 9 5 20 -3 29 -9 12 -9 13 0 8 8
-5 15 1 19 18 3 14 10 25 16 25 5 0 6 5 3 10 -3 6 -2 10 4 10 6 0 8 7 5 15 -4
8 -1 15 6 15 6 0 8 5 5 10 -3 5 -2 10 3 10 6 0 13 7 16 16 4 10 2 13 -7 8 -6
-4 -3 2 7 14 11 12 16 25 13 29 -4 3 2 13 13 20 11 8 18 18 15 23 -3 5 1 23
10 40 8 16 13 30 9 30 -4 0 -1 7 6 15 7 8 10 15 6 15 -3 0 3 16 14 36 11 19
15 32 8 28 -10 -6 -11 -5 -1 8 7 8 10 18 6 21 -3 4 -1 7 6 7 7 0 11 7 8 15 -4
8 -2 17 4 21 6 3 8 12 5 20 -3 8 0 14 6 14 6 0 9 3 6 6 -4 3 -1 20 7 37 7 18
11 43 10 55 -1 13 4 26 11 29 7 2 10 12 7 20 -4 9 -2 14 3 11 5 -3 10 10 11
29 1 19 8 42 15 51 7 9 8 13 2 9 -8 -4 -11 2 -10 17 0 13 5 22 10 18 5 -3 7 5
4 16 -4 12 -2 22 3 22 4 0 6 7 3 15 -4 8 -1 15 6 15 10 0 10 3 0 15 -10 12
-10 15 0 15 8 0 11 2 8 6 -3 3 -2 21 2 40 5 23 4 34 -4 34 -7 0 -7 3 1 8 7 4
11 18 8 30 -2 12 0 22 4 22 4 0 7 18 7 40 -1 22 1 40 4 40 7 0 4 75 -4 88 -3
6 2 15 11 21 12 7 13 10 4 11 -9 0 -11 6 -5 18 4 9 8 98 9 198 1 99 5 187 10
194 5 8 4 11 -2 7 -6 -4 -9 10 -8 36 1 23 -2 52 -6 65 -6 15 -5 22 4 22 8 0 9
2 1 8 -6 4 -11 26 -10 50 0 23 -2 42 -6 42 -4 0 -5 6 -2 14 3 8 0 24 -6 36 -7
13 -8 20 -3 17 5 -3 9 3 9 13 0 10 -4 16 -8 13 -5 -2 -7 6 -4 19 2 13 -2 40
-9 61 -9 25 -9 35 -1 30 6 -4 5 0 -2 9 -10 13 -10 17 0 21 11 4 10 6 0 6 -7 1
-10 6 -7 11 3 6 2 10 -3 10 -5 0 -8 14 -7 30 1 17 -2 30 -8 30 -5 0 -7 7 -3
15 7 20 -3 46 -16 39 -6 -4 -5 2 1 14 7 14 8 23 1 27 -5 3 -10 17 -10 30 0 13
-5 27 -11 31 -8 4 -7 9 2 15 11 7 11 9 -2 9 -11 0 -15 8 -14 25 2 14 -1 27 -6
31 -5 3 -7 10 -4 15 4 5 2 9 -3 9 -6 0 -8 10 -4 22 3 14 2 19 -6 14 -8 -5 -12
3 -12 23 0 17 -4 31 -8 31 -4 0 -9 12 -10 27 -1 15 -7 32 -12 37 -6 6 -10 18
-10 28 0 10 -5 18 -12 18 -6 0 -9 3 -5 6 3 4 0 19 -9 35 -8 16 -12 29 -8 29 4
0 1 7 -6 15 -7 8 -9 15 -4 15 5 0 2 5 -6 10 -8 5 -15 15 -16 22 -2 28 -17 58
-28 58 -6 0 -4 5 4 10 12 8 12 10 -5 11 -12 0 -15 3 -7 6 10 4 9 9 -5 20 -11
9 -12 12 -3 8 10 -4 9 -2 -2 8 -10 8 -15 17 -11 20 3 4 1 7 -6 7 -7 0 -9 5 -6
10 3 6 1 10 -5 10 -7 0 -10 7 -6 15 3 8 1 15 -4 15 -6 0 -10 7 -10 15 0 8 -5
15 -11 15 -5 0 -8 4 -5 9 3 5 -1 14 -9 21 -8 7 -15 21 -15 32 0 10 -4 16 -10
13 -5 -3 -10 1 -10 9 0 9 -6 16 -12 16 -9 0 -8 4 2 10 10 6 11 10 3 10 -7 0
-13 7 -13 16 0 8 -4 13 -9 9 -9 -5 -27 32 -23 48 1 4 -3 7 -8 7 -6 0 -18 16
-27 35 -9 19 -20 32 -25 29 -5 -3 -8 -2 -7 3 4 21 -2 44 -10 39 -5 -3 -14 8
-21 24 -7 17 -16 30 -21 30 -5 0 -9 7 -9 15 0 8 -4 15 -8 15 -4 0 -16 14 -25
30 -10 17 -15 30 -12 30 3 0 0 6 -7 14 -9 10 -15 11 -20 2 -5 -6 -8 -2 -8 12
0 12 -4 22 -8 22 -5 0 -15 11 -22 25 -7 13 -16 22 -20 20 -4 -2 -12 6 -18 20
-17 36 -54 75 -65 68 -6 -3 -7 -2 -4 4 3 5 -16 33 -43 61 -26 27 -46 53 -43
56 4 3 -1 6 -9 6 -9 0 -23 11 -32 25 -10 16 -22 23 -29 18 -7 -4 -6 0 2 10 12
15 12 17 -2 12 -10 -4 -17 1 -22 14 -3 12 -10 21 -14 21 -4 0 -16 7 -27 16
-10 8 -12 12 -4 8 9 -4 7 2 -5 13 -11 11 -23 19 -26 17 -4 -2 -14 7 -23 21 -9
14 -23 25 -31 25 -8 0 -15 5 -15 11 0 18 -29 41 -42 33 -7 -4 -10 -4 -6 0 8 9
-29 49 -55 59 -9 3 -17 14 -17 24 0 15 -2 16 -10 3 -6 -10 -10 -11 -10 -2 0 6
-7 12 -16 12 -8 0 -13 3 -11 8 6 9 -19 33 -27 25 -3 -4 -6 0 -6 7 0 7 -3 10
-6 7 -4 -4 -20 8 -37 26 -16 17 -24 23 -16 12 14 -19 14 -19 -12 0 -15 11 -24
25 -21 30 3 6 2 7 -3 3 -8 -8 -72 34 -87 56 -5 7 -8 6 -8 -3 0 -8 -8 -4 -21
10 -11 13 -18 17 -14 9 4 -10 2 -9 -8 2 -8 10 -17 15 -20 11 -4 -3 -7 -1 -7 5
0 7 -7 12 -15 12 -9 0 -18 6 -21 14 -3 8 -14 13 -25 11 -11 -2 -25 5 -34 18
-10 15 -15 17 -16 7 0 -8 -4 -5 -10 8 -5 13 -13 20 -19 17 -6 -3 -17 1 -26 9
-9 9 -20 14 -25 11 -5 -4 -9 -1 -9 5 0 6 -4 8 -10 5 -5 -3 -10 -1 -10 4 0 6
-9 11 -19 11 -11 0 -23 5 -26 10 -3 6 -15 10 -26 10 -13 0 -18 4 -13 13 4 6 4
9 -1 5 -4 -4 -15 -2 -23 5 -13 10 -15 9 -8 -3 4 -9 2 -8 -7 2 -8 10 -25 19
-38 20 -13 2 -30 10 -37 18 -8 8 -11 9 -7 3 4 -9 1 -11 -9 -7 -9 3 -13 11 -9
17 4 6 0 8 -9 4 -9 -3 -21 0 -27 6 -6 6 -11 8 -11 4 0 -4 -16 2 -36 13 -19 11
-33 16 -29 11 3 -6 -7 -4 -21 4 -15 8 -31 12 -36 9 -4 -3 -8 0 -8 5 0 6 -12
11 -26 11 -16 0 -23 4 -18 12 4 7 3 8 -4 4 -13 -8 -64 3 -58 13 3 4 -8 6 -25
5 -16 -1 -32 2 -35 7 -3 5 -10 7 -15 3 -6 -3 -20 2 -31 13 -14 12 -18 13 -13
3 7 -12 6 -13 -6 -4 -8 6 -22 10 -31 9 -10 -2 -21 1 -24 6 -3 6 -12 5 -22 -3
-12 -10 -14 -10 -8 0 7 11 -10 17 -41 13 -7 -1 -13 2 -13 6 0 4 -15 9 -33 11
-45 3 -60 6 -74 15 -6 4 -14 3 -18 -3 -4 -6 -12 -7 -18 -3 -7 4 -23 9 -37 9
-40 3 -42 3 -34 17 5 8 2 8 -9 -2 -9 -7 -17 -10 -17 -5 0 5 -24 10 -53 12
-103 4 -117 6 -117 16 0 6 -4 6 -11 -1 -6 -6 -24 -8 -42 -4 -18 4 -58 6 -89 6
-38 -1 -55 2 -51 9 4 6 0 5 -9 -1 -8 -7 -18 -10 -22 -6 -10 10 -46 11 -40 1 7
-11 -3 -10 -28 3 -11 6 -18 7 -14 1 3 -5 -5 -9 -19 -9 -14 0 -22 3 -19 8 6 10
0 12 -9 3z"/>
</g>
</svg>
